# xmcd
#
# Track frame offsets: 
#        150
#        16608
#        40612
#        55153
#        67445
#        89753
#        102420
#        116530
#        132860
#        150163
#        167055
#
# Disc length: 2398 seconds
#
# Revision: 0
# Processed by: cddbd v1.5.2PL0 Copyright (c) Steve Scherf et al.
# Submitted via: ExactAudioCopy v1.3
#
DISCID=89095c0b
DTITLE=Montgomery Gentry - Outskirts Deluxe
DYEAR=2019
DGENRE=Country
TTITLE0=Outskirts
TTITLE1=River Take Me
TTITLE2=What Am I Gonna Do With the Rest of My Life
TTITLE3=Never Been Nothing Else
TTITLE4=You'll Never Leave Harlan Alive
TTITLE5=King of the World
TTITLE6=Joe Six-Pack
TTITLE7=Didn't I
TTITLE8=Shakey Ground
TTITLE9=Roll With Me
TTITLE10=Good Ol' boys (Dukes of Hazzard Theme Song)
EXTD=
EXTT0=
EXTT1=
EXTT2=
EXTT3=
EXTT4=
EXTT5=
EXTT6=
EXTT7=
EXTT8=
EXTT9=
EXTT10=
PLAYORDER=
